<svg width="24" height="16" viewBox="0 0 24 16" fill="none" xmlns="http://www.w3.org/2000/svg">
<path d="M21.9972 15.7499L21.9994 15.7499C22.9545 15.7581 23.7381 14.9773 23.75 14.0042L23.75 2.0063C23.7462 1.53569 23.5589 1.08617 23.2297 0.756802C22.9014 0.428269 22.4589 0.246149 21.9972 0.250071L2.00064 0.250062C1.54109 0.246149 1.09858 0.428269 0.770279 0.756802C0.441145 1.08617 0.253838 1.53569 0.250008 2.00426L0.25 13.9937C0.253838 14.4643 0.441145 14.9138 0.770279 15.2432C1.09858 15.5717 1.54109 15.7538 2.00277 15.7499H21.9972ZM21.9962 16.2499C21.9958 16.2499 21.9955 16.2499 21.9951 16.2499L21.9972 16.2499H21.9962Z" fill="white" stroke="black" stroke-opacity="0.2" stroke-width="0.5"/>
<path d="M12.6094 16.0002H21.9942C22.521 16.0046 23.0279 15.7995 23.4035 15.4301C23.7791 15.0607 23.9926 14.5573 23.997 14.0305V11.6719C20.4531 13.7062 16.6098 15.167 12.6094 16.0002Z" fill="#F27712"/>
<path d="M23.173 9.29692H22.3205L21.3605 8.03072H21.2695V9.29692H20.5743V6.15209H21.6005C22.4033 6.15209 22.8667 6.48313 22.8667 7.07899C22.8667 7.56727 22.5771 7.88175 22.0557 7.98106L23.173 9.29692ZM22.1467 7.10382C22.1467 6.79761 21.915 6.64037 21.4847 6.64037H21.2695V7.59209H21.4681C21.915 7.59209 22.1467 7.42658 22.1467 7.10382ZM18.1412 6.15209H20.1109V6.68175H18.8364V7.3852H20.0612V7.92313H18.8364V8.77554H20.1109V9.3052H18.1412V6.15209ZM15.9067 9.37968L14.4005 6.14382H15.1619L16.1136 8.26244L17.0736 6.14382H17.8185L16.2957 9.37968H15.9233H15.9067ZM9.60881 9.37141C8.5495 9.37141 7.72192 8.6514 7.72192 7.71623C7.72192 6.80589 8.56606 6.06934 9.62537 6.06934C9.9233 6.06934 10.1716 6.12727 10.4778 6.25968V6.98796C10.2459 6.76013 9.93389 6.63236 9.60881 6.63209C8.94674 6.63209 8.44192 7.11209 8.44192 7.71623C8.44192 8.35347 8.93847 8.80865 9.64192 8.80865C9.9564 8.80865 10.1964 8.70934 10.4778 8.46106V9.18934C10.1633 9.32175 9.89847 9.37141 9.60881 9.37141ZM7.50675 8.33692C7.50675 8.94934 7.00192 9.37141 6.27364 9.37141C5.74399 9.37141 5.3633 9.18934 5.04054 8.77554L5.49571 8.38658C5.65295 8.66796 5.91778 8.80865 6.24881 8.80865C6.5633 8.80865 6.78675 8.6183 6.78675 8.37003C6.78675 8.22934 6.72054 8.12175 6.57985 8.03899C6.42559 7.96413 6.26495 7.9032 6.09985 7.85692C5.44606 7.65003 5.22261 7.42658 5.22261 6.98796C5.22261 6.47485 5.70261 6.08589 6.33157 6.08589C6.72882 6.08589 7.08468 6.21003 7.38261 6.44175L7.01847 6.85554C6.87415 6.69732 6.66987 6.6072 6.45571 6.60727C6.15778 6.60727 5.94261 6.75623 5.94261 6.95485C5.94261 7.12037 6.06675 7.21141 6.48054 7.35209C7.27502 7.60037 7.50675 7.83209 7.50675 8.3452V8.33692ZM4.08881 6.15209H4.78399V9.3052H4.08881V6.15209ZM1.85433 9.3052H0.828125V6.15209H1.85433C2.97985 6.15209 3.75778 6.79761 3.75778 7.72451C3.75778 8.19623 3.52606 8.64313 3.12054 8.94106C2.77295 9.18934 2.38399 9.3052 1.84606 9.3052H1.85433ZM2.66537 6.9383C2.43364 6.75623 2.16881 6.69003 1.71364 6.69003H1.5233V8.77554H1.71364C2.16054 8.77554 2.44192 8.69278 2.66537 8.52727C2.90537 8.32865 3.04606 8.03072 3.04606 7.72451C3.04606 7.4183 2.90537 7.12865 2.66537 6.9383Z" fill="black"/>
<path d="M12.413 6.06934C11.5026 6.06934 10.7578 6.79761 10.7578 7.69968C10.7578 8.65968 11.4695 9.37968 12.413 9.37968C13.3399 9.37968 14.0682 8.6514 14.0682 7.72451C14.0682 6.79761 13.3482 6.06934 12.413 6.06934Z" fill="#F27712"/>
</svg>
