<?xml version="1.0" standalone="no"?>
<!DOCTYPE svg PUBLIC "-//W3C//DTD SVG 20010904//EN"
 "http://www.w3.org/TR/2001/REC-SVG-20010904/DTD/svg10.dtd">
<svg version="1.0" xmlns="http://www.w3.org/2000/svg"
 width="2048.000000pt" height="2048.000000pt" viewBox="0 0 2048.000000 2048.000000"
 preserveAspectRatio="xMidYMid meet">

<g transform="translate(0.000000,2048.000000) scale(0.100000,-0.100000)"
fill="#000000" stroke="none">
<path d="M609 13693 c-33 -83 -175 -523 -219 -678 -409 -1446 -494 -2990 -244
-4479 285 -1701 1005 -3310 2090 -4673 539 -677 1202 -1320 1889 -1833 909
-679 1893 -1194 2950 -1546 445 -148 834 -252 1253 -336 197 -39 216 -41 240
-27 l27 15 3 3617 2 3617 -1280 0 -1280 0 0 1435 0 1435 1280 0 1279 0 4 1338
c3 1199 5 1353 21 1487 19 165 66 444 95 573 l19 82 -4059 0 -4059 0 -11 -27z"/>
<path d="M14850 13696 l0 -24 -782 -5 c-797 -5 -849 -7 -1063 -48 -525 -99
-839 -377 -960 -849 -53 -207 -54 -248 -57 -1433 l-3 -1097 1358 0 1357 0 -5
-22 c-7 -32 -455 -2825 -455 -2838 0 -7 -369 -10 -1130 -10 l-1130 0 0 -3610
0 -3610 -40 -6 c-33 -5 -38 -9 -29 -20 17 -20 38 -18 256 27 2519 517 4727
1911 6263 3954 660 878 1177 1863 1521 2896 323 972 489 1917 519 2959 34
1198 -140 2367 -520 3500 l-85 255 -2507 3 -2508 2 0 -24z"/>
</g>
</svg>
