<svg width="18" height="19" viewBox="0 0 18 19" fill="none" xmlns="http://www.w3.org/2000/svg">
<path fill-rule="evenodd" clip-rule="evenodd" d="M5.89123 3.29011C5.95788 2.82468 6.10011 2.56798 6.30161 2.39527C6.63692 2.10786 7.36138 1.8499 8.99844 1.8499C10.6355 1.8499 11.36 2.10786 11.6953 2.39527C11.8971 2.56826 12.0394 2.82549 12.106 3.29231C11.1998 3.18934 10.1671 3.1499 8.99844 3.1499C7.82844 3.1499 6.79619 3.18947 5.89123 3.29011ZM4.15732 3.60308C4.20126 2.67755 4.42514 1.76464 5.19526 1.10453C6.02662 0.391946 7.30216 0.149902 8.99844 0.149902C10.6947 0.149902 11.9703 0.391946 12.8016 1.10453C13.5747 1.7672 13.7973 2.68464 13.8401 3.61385C14.7257 3.86083 15.476 4.2341 16.0789 4.7976C17.2598 5.90148 17.6863 7.55934 17.8076 9.73884C17.8341 9.82109 17.8484 9.90883 17.8484 9.9999C17.8484 10.1576 17.8453 10.3168 17.8371 10.4765C17.845 10.7792 17.8484 11.091 17.8484 11.4117C17.8484 13.8465 17.5305 15.8445 16.0647 17.154C14.6377 18.4289 12.3358 18.8499 8.99844 18.8499C7.31362 18.8499 5.91445 18.7679 4.76968 18.5395C3.62066 18.3104 2.66866 17.9226 1.93311 17.2675C0.453691 15.9499 0.148438 13.8221 0.148438 10.9999C0.148438 10.7797 0.150295 10.5638 0.154424 10.3521C0.150177 10.2342 0.148438 10.1166 0.148438 9.9999C0.148438 9.93299 0.15617 9.86788 0.170791 9.80542C0.262979 7.57204 0.670275 5.85705 1.93311 4.73234C2.53372 4.19742 3.27865 3.84072 4.15732 3.60308ZM1.85543 10.3409C1.90937 7.91913 2.27812 6.70156 3.06376 6.00184C3.49488 5.61787 4.12622 5.32209 5.10219 5.12743C6.08243 4.93192 7.34992 4.8499 8.99844 4.8499C10.6477 4.8499 11.9126 4.93206 12.8898 5.13288C13.8607 5.3324 14.4877 5.63726 14.918 6.03952C15.6901 6.76126 16.0631 8.01508 16.1353 10.4589C16.1121 10.8252 16.057 11.1212 15.9597 11.3694C15.8354 11.6867 15.6266 11.9657 15.2246 12.2151C14.3419 12.7629 12.5676 13.1499 9.00448 13.1499C5.44167 13.1499 3.66367 12.763 2.77739 12.2146C2.37347 11.9647 2.16345 11.685 2.0384 11.3678C1.93039 11.0939 1.87395 10.7616 1.85543 10.3409ZM15.9811 13.7429C15.7998 14.7422 15.4632 15.4118 14.9321 15.8862C14.0258 16.6959 12.3277 17.1499 8.99844 17.1499C7.34992 17.1499 6.08243 17.0679 5.10219 16.8724C4.12622 16.6777 3.49488 16.3819 3.06376 15.998C2.54614 15.537 2.20949 14.8512 2.02461 13.7443C3.37415 14.5115 5.56684 14.8499 9.00448 14.8499C12.4432 14.8499 14.6341 14.5113 15.9811 13.7429ZM6.14844 10.9999C6.14844 10.5305 6.529 10.1499 6.99844 10.1499H10.9984C11.4679 10.1499 11.8484 10.5305 11.8484 10.9999C11.8484 11.4693 11.4679 11.8499 10.9984 11.8499L6.99844 11.8499C6.529 11.8499 6.14844 11.4693 6.14844 10.9999Z" fill="#9C9C9C"/>
</svg>
